# AST/ASF file generated using VICON BodyLanguage
# -----------------------------------------------
:version 1.10
:name VICON
:units
  mass 1.0
  length 0.45
  angle deg
:documentation
   .ast/.asf automatically generated from VICON data using
   VICON BodyBuilder and BodyLanguage model FoxedUp or BRILLIANT.MOD
:root
   order TX TY TZ RX RY RZ
   axis XYZ
   position 0 0 0  
   orientation 0 0 0 
:bonedata
  begin
     id 1 
     name lhipjoint
     direction 0.62366 -0.717238 0.310833 
     length 2.53602 
     axis 0 0 0  XYZ
  end
  begin
     id 2 
     name lfemur
     direction 0.34202 -0.939693 0  
     length 7.40817  
     axis 0 0 20  XYZ
    dof rx ry rz
    limits (-160.0 20.0)
           (-70.0 70.0)
           (-60.0 70.0)
  end
  begin
     id 3 
     name ltibia
     direction 0.34202 -0.939693 0   
     length 7.7045   
     axis 0 0 20   XYZ
    dof rx
    limits (-10.0 170.0)
  end
  begin
     id 4 
     name lfoot
     direction 0.0673888 -0.185149 0.980397   
     length 2.09456   
     axis -90 7.62852e-016 20   XYZ
    dof rx rz
    limits (-45.0 90.0)
           (-70.0 20.0)
  end
  begin
     id 5 
     name ltoes
     direction 1.53575e-011 -4.21994e-011 1   
     length 1.05543   
     axis -90 7.62852e-016 20   XYZ
    dof rx
    limits (-90.0 20.0)
  end
  begin
     id 6 
     name rhipjoint
     direction -0.489018 -0.800347 0.346851   
     length 2.27268  
     axis 0 0 0  XYZ 
  end
  begin
     id 7 
     name rfemur
     direction -0.34202 -0.939693 0   
     length 7.55487   
     axis 0 0 -20   XYZ
    dof rx ry rz
    limits (-160.0 20.0)
           (-70.0 70.0)
           (-70.0 60.0)
  end
  begin
     id 8 
     name rtibia
     direction -0.34202 -0.939693 0   
     length 7.78969   
     axis 0 0 -20   XYZ
    dof rx
    limits (-10.0 170.0)
 end
 begin
     id 9 
     name rfoot
     direction -0.0859318 -0.236096 0.967923   
     length 2.19143  
     axis -90 -7.62852e-016 -20   XYZ
    dof rx rz
    limits (-45.0 90.0)
           (-20.0 70.0)
  end
  begin
     id 10 
     name rtoes
     direction -1.53538e-011 -4.21989e-011 1   
     length 1.09845   
     axis -90 -7.62852e-016 -20   XYZ
    dof rx
    limits (-90.0 20.0)
  end
  begin
     id 11 
     name lowerback
     direction -0.00762546 0.998978 -0.0445553   
     length 1.98161   
     axis 0 0 0   XYZ
    dof rx ry rz
    limits (-20.0 45.0)
           (-30.0 30.0)
           (-30.0 30.0)
  end
  begin
     id 12 
     name upperback
     direction 0.0422361 0.998867 -0.0219156   
     length 1.97558   
     axis 0 0 0   XYZ
    dof rx ry rz
    limits (-20.0 45.0)
           (-30.0 30.0)
           (-30.0 30.0)
  end
  begin
     id 13 
     name thorax
     direction 0.0442465 0.999021 7.47603e-005   
     length 1.97799   
     axis 0 0 0   XYZ
    dof rx ry rz
    limits (-20.0 45.0)
           (-30.0 30.0)
           (-30.0 30.0)
  end
  begin
     id 14 
     name lowerneck
     direction 0.00312169 0.984641 0.174564   
     length 1.78995   
     axis 0 0 0   XYZ
    dof rx ry rz
    limits (-20.0 45.0)
           (-30.0 30.0)
           (-30.0 30.0)
  end
  begin
     id 15 
     name upperneck
     direction -0.0383028 0.985255 -0.166749   
     length 1.83053   
     axis 0 0 0   XYZ
    dof rx ry rz
    limits (-20.0 45.0)
           (-30.0 30.0)
           (-30.0 30.0)
  end
  begin
     id 16
     name head
     direction -0.0129546 0.997059 -0.0755386  
     length 1.84088  
     axis 0 0 0   XYZ
    dof rx ry rz
    limits (-20.0 45.0)
           (-30.0 30.0)
           (-30.0 30.0)
  end
  begin
     id 17 
     name lclavicle
     direction 0.912857 0.370519 -0.171488  
     length 3.51279  
     axis 0 0 0   XYZ
    dof ry rz
    limits (-20.0 10.0)
           (0.0 20.0)
  end
  begin
     id 18 
     name lhumerus
     direction 1 -4.48962e-011 3.64361e-027   
     length 4.95663   
     axis 180 -30 -90   XYZ
    dof rx ry rz
    limits (-60.0 90.0)
           (-90.0 90.0)
           (-90.0 90.0)
  end
  begin
     id 19
     name lradius
     direction 1 -4.48974e-011 5.97202e-027   
     length 3.38177   
     axis 180 -30 -90   XYZ
    dof rx
    limits (-10.0 170.0)
  end
  begin
     id 20
     name lwrist
     direction 1 -4.4896e-011 9.83288e-027   
     length 1.69088   
     axis -9.31221e-015 90 90   XYZ
    dof ry
    limits (-180.0 0.0)
 end
  begin
     id 21 
     name lhand
     direction 1 -4.4902e-011 1.96551e-026   
     length 0.662909   
     axis -1.25475e-014 90 90   XYZ
    dof rx rz
    limits (-90.0 90.0)
           (-45.0 45.0)
  end
  begin
     id 22 
     name lfingers
     direction 1 -4.48971e-011 3.93277e-026   
     length 0.534454   
     axis -2.50945e-014 90 90   XYZ
    dof rx
    limits (0.0 90.0)
  end
  begin
     id 23
     name lthumb
     direction 0.707107 -6.34933e-011 0.707107   
     length 0.767373   
     axis -90 45 -4.80359e-014   XYZ
    dof rx rz
    limits (-45.0 45.0)
           (-45.0 45.0)
  end
  begin
     id 24 
     name rclavicle
     direction -0.900919 0.395364 -0.178976   
     length 3.40627  
     axis 0 0 0   XYZ 
    dof ry rz
    limits (-10.0 20.0)
           (-20.0 0.0)
  end
  begin
     id 25 
     name rhumerus
     direction -1 -4.48969e-011 1.03875e-027  
     length 5.08365   
     axis 180 30 90   XYZ
    dof rx ry rz
    limits (-90.0 60.0)
           (-90.0 90.0)
           (-90.0 90.0)
  end
  begin
     id 26 
     name rradius
     direction -1 -4.48951e-011 5.02733e-027   
     length 3.35984   
     axis 180 30 90   XYZ
    dof rx
    limits (-10.0 170.0)
  end
  begin
     id 27 
     name rwrist
     direction -1 -4.49011e-011 9.82828e-027   
     length 1.67992   
     axis -9.31221e-015 -90 -90   XYZ
    dof ry
    limits (-180.0 0.0)
  end
  begin
     id 28
     name rhand
     direction -1 -4.48894e-011 1.96774e-026   
     length 0.820764   
     axis -1.25475e-014 -90 -90   XYZ
    dof rx rz
    limits (-90.0 90.0)
           (-45.0 45.0)
  end
  begin
     id 29
     name rfingers
     direction -1 -4.49095e-011 3.92833e-026   
     length 0.661721   
     axis -2.50945e-014 -90 -90   XYZ
    dof rx
    limits (0.0 90.0)
  end
  begin
     id 30
     name rthumb
     direction -0.707107 -6.34881e-011 0.707107   
     length 0.950103   
     axis -90 -45 4.80359e-014   XYZ
    dof rx rz
    limits (-45.0 45.0)
           (-45.0 45.0)
  end
:hierarchy
  begin
    root lhipjoint rhipjoint lowerback
    lhipjoint lfemur
    lfemur ltibia
    ltibia lfoot
    lfoot ltoes
    rhipjoint rfemur
    rfemur rtibia
    rtibia rfoot
    rfoot rtoes
    lowerback upperback
    upperback thorax
    thorax lowerneck lclavicle rclavicle
    lowerneck upperneck
    upperneck head
    lclavicle lhumerus
    lhumerus lradius
    lradius lwrist
    lwrist lhand lthumb
    lhand lfingers
    rclavicle rhumerus
    rhumerus rradius
    rradius rwrist
    rwrist rhand rthumb
    rhand rfingers
  end

#!OML:ASF I:\golf\golf\golf 2\Subject 1\2002-09-07\Subject1.ASF
:FULLY-SPECIFIED
:DEGREES
106
root -5.99451 17.8646 0.263833 -85.4816 85.204 -103.435
lowerback -0.327245 2.13242 -1.19908
upperback 3.70848 2.85065 3.78006
thorax 3.75896 1.3569 4.68745
lowerneck -15.418 -1.94942 1.4393
upperneck 39.3881 0.0167461 -3.74918
head 16.8628 0.262902 -1.76486
rclavicle -3.12092e-014 -1.11319e-014
rhumerus -6.56537 -5.69333 -101.781
rradius 20.3679
rwrist -36.5558
rhand -8.4319 -9.32587
rfingers 7.12502
rthumb 17.4932 -38.5588
lclavicle -3.12092e-014 -1.11319e-014
lhumerus -11.2515 -46.6536 110.775
lradius 23.67
lwrist 36.9794
lhand -4.3183 71.3306
lfingers 7.12502
lthumb -158.552 79.8367
rfemur -28.9419 -0.729353 12.4161
rtibia 23.5045
rfoot -8.16026 -9.34395
rtoes 15.5273
lfemur -30.2317 9.82805 -7.41554
ltibia 27.3503
lfoot -9.91291 -1.07912
ltoes -21.3189
107
root -5.99511 17.8647 0.263408 -85.3511 85.19 -103.364
lowerback -0.370191 2.12808 -1.21923
upperback 3.69553 2.84468 3.81317
thorax 3.76791 1.35282 4.73496
lowerneck -15.4277 -1.92345 1.35589
upperneck 39.4564 0.0748772 -3.69418
head 16.906 0.284527 -1.7159
rclavicle -1.27222e-014 -7.31528e-014
rhumerus -6.54806 -5.35954 -101.921
rradius 20.4866
rwrist -37.3991
rhand -9.07584 -9.15725
rfingers 7.12502
rthumb 16.8734 -38.4442
lclavicle -1.27222e-014 -7.31528e-014
lhumerus -11.3216 -46.711 110.952
lradius 23.4789
lwrist 35.3104
lhand -4.02216 70.862
lfingers 7.12502
lthumb -158.267 80.338
rfemur -29.016 -0.717772 12.4208
rtibia 23.5148
rfoot -7.76133 -9.4629
rtoes 6.62294
lfemur -30.315 9.90454 -7.42156
ltibia 27.3593
lfoot -9.88278 -1.18521
ltoes -20.9268
108
root -5.99568 17.8653 0.262666 -85.619 85.1602 -103.68
lowerback -0.380434 2.12265 -1.18173
upperback 3.66876 2.83651 3.81756
thorax 3.74803 1.35043 4.71759
lowerneck -15.3952 -1.92484 1.30574
upperneck 39.4796 0.0684808 -3.62634
head 16.9106 0.285396 -1.67739
rclavicle 1.78906e-014 -3.97569e-015
rhumerus -6.55249 -5.0231 -102.06
rradius 20.5825
rwrist -37.9712
rhand -9.55314 -8.88404
rfingers 7.12502
rthumb 16.4139 -38.2096
lclavicle 1.78906e-014 -3.97569e-015
lhumerus -11.422 -46.7051 111.044
lradius 23.2961
lwrist 34.1672
lhand -3.92571 70.366
lfingers 7.12502
lthumb -158.175 80.8447
rfemur -29.0612 -0.632074 12.4133
rtibia 23.5141
rfoot -6.79235 -9.58909
rtoes -7.46094
lfemur -30.3889 9.94382 -7.40678
ltibia 27.3608
lfoot -9.87111 -1.26953
ltoes -20.651
109
root -5.99599 17.8645 0.262014 -85.8474 85.1589 -103.94
lowerback -0.381738 2.11595 -1.12433
upperback 3.65763 2.82641 3.78448
thorax 3.74214 1.34763 4.64987
lowerneck -15.3453 -1.93024 1.30538
upperneck 39.4306 0.0452517 -3.60241
head 16.87 0.277946 -1.66924
rclavicle 5.92378e-014 4.92986e-014
rhumerus -6.53129 -4.71472 -102.136
rradius 20.5645
rwrist -37.9869
rhand -9.65546 -8.69736
rfingers 7.12502
rthumb 16.3154 -38.031
lclavicle 5.92378e-014 4.92986e-014
lhumerus -11.5396 -46.8474 111.103
lradius 23.3812
lwrist 33.9598
lhand -5.03121 71.1801
lfingers 7.12502
lthumb -159.237 79.9107
rfemur -29.0872 -0.650778 12.4126
rtibia 23.5084
rfoot -7.16631 -9.53412
rtoes 10.4368
lfemur -30.4227 9.91431 -7.40682
ltibia 27.3513
lfoot -9.88776 -1.24567
ltoes -20.8779
110
root -5.99636 17.8639 0.261167 -86.1351 85.1874 -104.228
lowerback -0.325083 2.1252 -1.12757
upperback 3.65888 2.83958 3.7677
thorax 3.71081 1.35489 4.63175
lowerneck -15.3745 -1.93909 1.28375
upperneck 39.4316 0.0239303 -3.56844
head 16.8773 0.270215 -1.6544
rclavicle -1.55052e-014 -7.15625e-015
rhumerus -6.48612 -4.51362 -102.146
rradius 20.5076
rwrist -37.9212
rhand -9.80525 -8.6332
rfingers 7.12502
rthumb 16.1712 -37.9786
lclavicle -1.55052e-014 -7.15625e-015
lhumerus -11.5793 -47.0162 111.154
lradius 23.4514
lwrist 34.0686
lhand -5.98505 71.893
lfingers 7.12502
lthumb -160.153 79.1003
rfemur -29.0864 -0.668917 12.3747
rtibia 23.5142
rfoot -10.1456 -8.33745
rtoes 42.9034
lfemur -30.4201 9.83114 -7.42303
ltibia 27.3435
lfoot -9.89481 -1.19892
ltoes -21.0678
111
root -5.99717 17.8639 0.259045 -86.4154 85.1944 -104.537
lowerback -0.277328 2.17587 -1.13137
upperback 3.64086 2.90809 3.76916
thorax 3.65878 1.39016 4.63417
lowerneck -15.433 -1.9806 1.27032
upperneck 39.492 -0.0449224 -3.52422
head 16.9223 0.248468 -1.64626
rclavicle -3.93594e-014 -6.2816e-014
rhumerus -6.47383 -4.40029 -102.127
rradius 20.5334
rwrist -38.0725
rhand -10.2159 -8.47753
rfingers 7.12502
rthumb 15.7757 -37.8546
lclavicle -3.93594e-014 -6.2816e-014
lhumerus -11.6522 -47.2831 111.27
lradius 23.4258
lwrist 34.0957
lhand -6.25969 71.9133
lfingers 7.12502
lthumb -160.417 79.0529
rfemur -29.1182 -0.687962 12.3541
rtibia 23.52
rfoot -8.7574 -9.34949
rtoes 22.7684
lfemur -30.4705 9.85982 -7.45799
ltibia 27.3428
lfoot -9.88595 -1.28296
ltoes -20.8964
112
root -5.99874 17.8633 0.257017 -86.6455 85.2061 -104.807
lowerback -0.246003 2.19886 -1.15743
upperback 3.62035 2.93973 3.77297
thorax 3.61554 1.40604 4.65129
lowerneck -15.4539 -2.00529 1.33817
upperneck 39.5217 -0.0793666 -3.57836
head 16.9415 0.238574 -1.68977
rclavicle -9.93923e-015 1.11319e-014
rhumerus -6.48581 -4.34208 -102.151
rradius 20.5367
rwrist -38.0701
rhand -10.6555 -8.25154
rfingers 7.12502
rthumb 15.3524 -37.6616
lclavicle -9.93923e-015 1.11319e-014
lhumerus -11.6953 -47.5567 111.322
lradius 23.4306
lwrist 34.2243
lhand -6.54751 72.1144
lfingers 7.12502
lthumb -160.694 78.8239
rfemur -29.1527 -0.678866 12.3211
rtibia 23.518
rfoot -6.95818 -9.71451
rtoes -5.7448
lfemur -30.5393 9.99287 -7.53549
ltibia 27.3409
lfoot -9.88278 -1.42702
ltoes -20.9544
113
root -6.00068 17.8653 0.256613 -87.2315 85.2344 -105.391
lowerback -0.188675 2.16591 -1.24759
upperback 3.6212 2.89789 3.80378
thorax 3.58209 1.38279 4.73057
lowerneck -15.4359 -2.00493 1.36677
upperneck 39.4847 -0.059651 -3.66218
head 16.9172 0.237985 -1.72815
rclavicle -1.78906e-014 -3.18055e-014
rhumerus -6.50847 -4.06998 -102.166
rradius 20.5272
rwrist -38.1331
rhand -10.8106 -8.14977
rfingers 7.12502
rthumb 15.2029 -37.5712
lclavicle -1.78906e-014 -3.18055e-014
lhumerus -11.6566 -47.8641 111.269
lradius 23.4706
lwrist 34.396
lhand -6.77138 72.4774
lfingers 7.12502
lthumb -160.909 78.4396
rfemur -29.1343 -0.596198 12.2509
rtibia 23.5201
rfoot -6.71461 -9.81452
rtoes -8.77083
lfemur -30.5663 10.0151 -7.5875
ltibia 27.3452
lfoot -9.85605 -1.53214
ltoes -20.6612
114
root -6.0015 17.8685 0.256349 -87.7346 85.2625 -105.888
lowerback -0.150196 2.16844 -1.28312
upperback 3.62263 2.90235 3.8046
thorax 3.55974 1.38437 4.74975
lowerneck -15.4179 -2.02672 1.35344
upperneck 39.4523 -0.0854829 -3.67724
head 16.8939 0.222678 -1.73624
rclavicle -3.65764e-014 8.74653e-015
rhumerus -6.53962 -3.78311 -102.169
rradius 20.5584
rwrist -38.2483
rhand -10.8423 -8.0312
rfingers 7.12502
rthumb 15.1724 -37.455
lclavicle -3.65764e-014 8.74653e-015
lhumerus -11.7142 -48.4999 111.275
lradius 23.5598
lwrist 34.6436
lhand -6.79216 72.6329
lfingers 7.12502
lthumb -160.929 78.2821
rfemur -29.1167 -0.562093 12.1982
rtibia 23.5232
rfoot -6.80942 -9.88732
rtoes -5.81628
lfemur -30.5869 9.98928 -7.62056
ltibia 27.3588
lfoot -9.83456 -1.62002
ltoes -20.0566
115
root -6.00172 17.8687 0.254443 -87.8842 85.2844 -106.026
lowerback -0.113746 2.20133 -1.26858
upperback 3.63359 2.94653 3.78658
thorax 3.54805 1.4073 4.72231
lowerneck -15.4335 -2.04406 1.37106
upperneck 39.4352 -0.113478 -3.6934
head 16.887 0.211274 -1.75151
rclavicle -1.55052e-014 -2.3059e-014
rhumerus -6.57882 -3.57452 -102.153
rradius 20.6168
rwrist -38.2551
rhand -10.7126 -7.79251
rfingers 7.12502
rthumb 15.2974 -37.2068
lclavicle -1.55052e-014 -2.3059e-014
lhumerus -11.7209 -49.0433 111.266
lradius 23.5268
lwrist 34.4503
lhand -6.00049 72.2089
lfingers 7.12502
lthumb -160.168 78.7829
rfemur -29.0976 -0.603245 12.1723
rtibia 23.513
rfoot -6.84884 -9.86561
rtoes -5.3219
lfemur -30.5932 10.0355 -7.67329
ltibia 27.3787
lfoot -9.87314 -1.70699
ltoes -20.0261
116
root -6.00305 17.8679 0.251731 -88.0535 85.2466 -106.193
lowerback -0.106482 2.21274 -1.22431
upperback 3.6674 2.96116 3.81909
thorax 3.57835 1.41527 4.73264
lowerneck -15.4468 -2.0578 1.32302
upperneck 39.3787 -0.124414 -3.69952
head 16.8596 0.196343 -1.74671
rclavicle 4.37326e-015 3.49861e-014
rhumerus -6.62594 -3.05676 -102.101
rradius 20.7629
rwrist -38.6679
rhand -10.5993 -7.53968
rfingers 7.12502
rthumb 15.4064 -36.9456
lclavicle 4.37326e-015 3.49861e-014
lhumerus -11.5793 -49.3434 111.188
lradius 23.4248
lwrist 34.062
lhand -5.37238 71.8662
lfingers 7.12502
lthumb -159.564 79.1892
rfemur -29.0888 -0.635972 12.2099
rtibia 23.5045
rfoot -7.19229 -9.75581
rtoes 10.2117
lfemur -30.6146 10.0693 -7.65258
ltibia 27.3955
lfoot -9.90164 -1.75408
ltoes -20.1727
